<mxfile host="Electron" modified="2024-05-25T13:14:05.162Z" agent="Mozilla/5.0 (Windows NT 10.0; Win64; x64) AppleWebKit/537.36 (KHTML, like Gecko) draw.io/24.4.8 Chrome/124.0.6367.207 Electron/30.0.6 Safari/537.36" etag="OtAaEZatR8kXsULBvYsS" version="24.4.8" type="device">
  <diagram name="Page-1" id="ueT9QGQjVAuRjxP-KMnC">
    <mxGraphModel dx="1195" dy="703" grid="1" gridSize="10" guides="1" tooltips="1" connect="1" arrows="1" fold="1" page="1" pageScale="1" pageWidth="827" pageHeight="583" math="0" shadow="0">
      <root>
        <mxCell id="0" />
        <mxCell id="1" parent="0" />
        <mxCell id="opG5Wr5jT-DF-CpBvHGN-1" value="Control listener structure" style="text;html=1;align=center;verticalAlign=middle;resizable=0;points=[];autosize=1;strokeColor=none;fillColor=none;fontSize=18;" vertex="1" parent="1">
          <mxGeometry x="20" y="10" width="220" height="40" as="geometry" />
        </mxCell>
        <mxCell id="opG5Wr5jT-DF-CpBvHGN-18" style="edgeStyle=orthogonalEdgeStyle;rounded=0;orthogonalLoop=1;jettySize=auto;html=1;exitX=0.5;exitY=0;exitDx=0;exitDy=0;entryX=0;entryY=0.5;entryDx=0;entryDy=0;" edge="1" parent="1" source="opG5Wr5jT-DF-CpBvHGN-2" target="opG5Wr5jT-DF-CpBvHGN-14">
          <mxGeometry relative="1" as="geometry" />
        </mxCell>
        <mxCell id="opG5Wr5jT-DF-CpBvHGN-2" value="Parse input" style="rounded=1;whiteSpace=wrap;html=1;fillColor=#dae8fc;strokeColor=#6c8ebf;fontSize=16;" vertex="1" parent="1">
          <mxGeometry x="210" y="120" width="120" height="60" as="geometry" />
        </mxCell>
        <mxCell id="opG5Wr5jT-DF-CpBvHGN-5" style="edgeStyle=orthogonalEdgeStyle;rounded=0;orthogonalLoop=1;jettySize=auto;html=1;exitX=1;exitY=0.5;exitDx=0;exitDy=0;entryX=0;entryY=0.5;entryDx=0;entryDy=0;" edge="1" parent="1" source="opG5Wr5jT-DF-CpBvHGN-4" target="opG5Wr5jT-DF-CpBvHGN-2">
          <mxGeometry relative="1" as="geometry" />
        </mxCell>
        <mxCell id="opG5Wr5jT-DF-CpBvHGN-4" value="Controller state message" style="rounded=1;whiteSpace=wrap;html=1;fillColor=#fff2cc;strokeColor=#d6b656;fontSize=16;" vertex="1" parent="1">
          <mxGeometry x="60" y="120" width="120" height="60" as="geometry" />
        </mxCell>
        <mxCell id="opG5Wr5jT-DF-CpBvHGN-6" value="Publish control message" style="rounded=1;whiteSpace=wrap;html=1;fillColor=#dae8fc;strokeColor=#6c8ebf;fontSize=16;" vertex="1" parent="1">
          <mxGeometry x="530" y="120" width="120" height="60" as="geometry" />
        </mxCell>
        <mxCell id="opG5Wr5jT-DF-CpBvHGN-11" value="" style="edgeStyle=orthogonalEdgeStyle;rounded=0;orthogonalLoop=1;jettySize=auto;html=1;" edge="1" parent="1" source="opG5Wr5jT-DF-CpBvHGN-7" target="opG5Wr5jT-DF-CpBvHGN-6">
          <mxGeometry relative="1" as="geometry" />
        </mxCell>
        <mxCell id="opG5Wr5jT-DF-CpBvHGN-7" value="Control message" style="rounded=1;whiteSpace=wrap;html=1;fillColor=#fff2cc;strokeColor=#d6b656;fontSize=16;" vertex="1" parent="1">
          <mxGeometry x="370" y="120" width="120" height="60" as="geometry" />
        </mxCell>
        <mxCell id="opG5Wr5jT-DF-CpBvHGN-13" style="edgeStyle=orthogonalEdgeStyle;rounded=0;orthogonalLoop=1;jettySize=auto;html=1;exitX=1;exitY=0.5;exitDx=0;exitDy=0;entryX=0.5;entryY=0;entryDx=0;entryDy=0;" edge="1" parent="1" source="opG5Wr5jT-DF-CpBvHGN-12" target="opG5Wr5jT-DF-CpBvHGN-6">
          <mxGeometry relative="1" as="geometry" />
        </mxCell>
        <mxCell id="opG5Wr5jT-DF-CpBvHGN-12" value="100Hz&lt;div style=&quot;font-size: 16px;&quot;&gt;timer&lt;/div&gt;" style="ellipse;whiteSpace=wrap;html=1;aspect=fixed;fillColor=#d5e8d4;strokeColor=#82b366;fontSize=16;" vertex="1" parent="1">
          <mxGeometry x="480" y="40" width="60" height="60" as="geometry" />
        </mxCell>
        <mxCell id="opG5Wr5jT-DF-CpBvHGN-17" value="" style="group" vertex="1" connectable="0" parent="1">
          <mxGeometry x="300" y="30" width="140" height="80" as="geometry" />
        </mxCell>
        <mxCell id="opG5Wr5jT-DF-CpBvHGN-14" value="" style="rounded=1;whiteSpace=wrap;html=1;fillColor=#f8cecc;strokeColor=#b85450;fontSize=16;" vertex="1" parent="opG5Wr5jT-DF-CpBvHGN-17">
          <mxGeometry width="120" height="60" as="geometry" />
        </mxCell>
        <mxCell id="opG5Wr5jT-DF-CpBvHGN-15" value="" style="rounded=1;whiteSpace=wrap;html=1;fillColor=#f8cecc;strokeColor=#b85450;fontSize=16;" vertex="1" parent="opG5Wr5jT-DF-CpBvHGN-17">
          <mxGeometry x="10" y="10" width="120" height="60" as="geometry" />
        </mxCell>
        <mxCell id="opG5Wr5jT-DF-CpBvHGN-16" value="Joint setpoints&lt;div&gt;rail through twist&lt;/div&gt;" style="rounded=1;whiteSpace=wrap;html=1;fillColor=#f8cecc;strokeColor=#b85450;fontSize=16;" vertex="1" parent="opG5Wr5jT-DF-CpBvHGN-17">
          <mxGeometry x="20" y="20" width="120" height="60" as="geometry" />
        </mxCell>
        <mxCell id="opG5Wr5jT-DF-CpBvHGN-19" style="edgeStyle=orthogonalEdgeStyle;rounded=0;orthogonalLoop=1;jettySize=auto;html=1;exitX=0.25;exitY=1;exitDx=0;exitDy=0;entryX=0;entryY=0.5;entryDx=0;entryDy=0;" edge="1" parent="1" source="opG5Wr5jT-DF-CpBvHGN-16" target="opG5Wr5jT-DF-CpBvHGN-7">
          <mxGeometry relative="1" as="geometry" />
        </mxCell>
      </root>
    </mxGraphModel>
  </diagram>
</mxfile>
